<?xml version="1.0" encoding="UTF-8"?>
<svg id="Layer_2" data-name="Layer 2" xmlns="http://www.w3.org/2000/svg" xmlns:xlink="http://www.w3.org/1999/xlink" viewBox="0 0 728.93 735.89">
  <defs>
    <style>
      .cls-1 {
        fill: url(#linear-gradient-8);
      }

      .cls-2 {
        fill: url(#linear-gradient-7);
      }

      .cls-3 {
        fill: url(#linear-gradient-5);
      }

      .cls-4 {
        fill: url(#linear-gradient-6);
      }

      .cls-5 {
        fill: url(#linear-gradient-9);
      }

      .cls-6 {
        fill: url(#linear-gradient-4);
      }

      .cls-7 {
        fill: url(#linear-gradient-3);
      }

      .cls-8 {
        fill: url(#linear-gradient-2);
      }

      .cls-9 {
        fill: url(#linear-gradient);
      }

      .cls-10 {
        fill: url(#linear-gradient-10);
      }

      .cls-11 {
        fill: url(#linear-gradient-11);
      }
    </style>
    <linearGradient id="linear-gradient" x1="120.86" y1="275.76" x2="676.86" y2="535.96" gradientUnits="userSpaceOnUse">
      <stop offset="0" stop-color="#ff2d77"/>
      <stop offset="1" stop-color="#00f3ff"/>
    </linearGradient>
    <linearGradient id="linear-gradient-2" x1="287.66" y1="646.83" x2="467.12" y2="721.02" gradientUnits="userSpaceOnUse">
      <stop offset="0" stop-color="#ff2d77"/>
      <stop offset=".04" stop-color="#eb3b81"/>
      <stop offset=".2" stop-color="#ae6ba2"/>
      <stop offset=".35" stop-color="#7995be"/>
      <stop offset=".5" stop-color="#4db6d5"/>
      <stop offset=".64" stop-color="#2bd0e7"/>
      <stop offset=".77" stop-color="#13e3f4"/>
      <stop offset=".9" stop-color="#05effc"/>
      <stop offset="1" stop-color="#00f3ff"/>
    </linearGradient>
    <linearGradient id="linear-gradient-3" x1="593.7" y1="565.62" x2="724.9" y2="617.22" gradientUnits="userSpaceOnUse">
      <stop offset="0" stop-color="#ff2d77"/>
      <stop offset="0" stop-color="#f5347b"/>
      <stop offset=".05" stop-color="#c75794"/>
      <stop offset=".09" stop-color="#9c79ab"/>
      <stop offset=".14" stop-color="#7796bf"/>
      <stop offset=".2" stop-color="#56afd0"/>
      <stop offset=".25" stop-color="#3bc4df"/>
      <stop offset=".32" stop-color="#25d5eb"/>
      <stop offset=".4" stop-color="#14e3f4"/>
      <stop offset=".49" stop-color="#08ecfa"/>
      <stop offset=".63" stop-color="#01f1fe"/>
      <stop offset="1" stop-color="#00f3ff"/>
    </linearGradient>
    <linearGradient id="linear-gradient-4" x1="396.43" y1="596.89" x2="555.08" y2="596.89" xlink:href="#linear-gradient"/>
    <linearGradient id="linear-gradient-5" x1="481.21" y1="544.11" x2="562.8" y2="544.11" xlink:href="#linear-gradient"/>
    <linearGradient id="linear-gradient-6" x1="339.42" y1="525.8" x2="424.86" y2="525.8" xlink:href="#linear-gradient"/>
    <linearGradient id="linear-gradient-7" x1="458.42" y1="489.96" x2="526.08" y2="489.96" xlink:href="#linear-gradient"/>
    <linearGradient id="linear-gradient-8" x1="578.21" y1="470.78" x2="642.57" y2="470.78" xlink:href="#linear-gradient"/>
    <linearGradient id="linear-gradient-9" x1="345.76" y1="588.04" x2="425.64" y2="588.04" xlink:href="#linear-gradient"/>
    <linearGradient id="linear-gradient-10" x1="563.63" y1="536.66" x2="617.94" y2="536.66" xlink:href="#linear-gradient"/>
    <linearGradient id="linear-gradient-11" x1="259.17" y1="606.19" x2="346.81" y2="606.19" xlink:href="#linear-gradient"/>
  </defs>
  <g id="Layer_1-2" data-name="Layer 1">
    <g>
      <path class="cls-9" d="M293.43,582.69c.13-.21.23-.52.31-.86-1.84-4.07-2.87-8.58-2.87-13.34,0-17.92,14.53-32.45,32.45-32.45,3.15,0,6.19.46,9.07,1.29l16.53-40.09c-11.73-4.89-19.98-16.46-19.98-29.97,0-17.92,14.53-32.45,32.45-32.45s32.45,14.53,32.45,32.45c0,7.35-2.45,14.12-6.56,19.56,8.46,9.73,33.28,33.63,43.63,41.96,5.65-4.79,12.96-7.68,20.95-7.68.04,0,.09,0,.13,0,2.52-30.99,2.56-32.69,3.27-61.89,0-.19-.03-.38-.11-.57-14.62-3.16-25.57-16.15-25.57-31.71,0-17.92,14.53-32.45,32.45-32.45s32.45,14.53,32.45,32.45c0,5.13-1.2,9.98-3.32,14.3.04.44.12.8.29,1.06,1.41,2.21,27.86,17.12,37.92,20.99,5.95-7.37,15.05-12.1,25.27-12.1,6.94,0,13.37,2.19,18.65,5.9,5.36-6.08,6.31-7.15,13.04-14.79,4.33-4.91,7.14-8.39,8.94-11.21-7.29-5.95-11.94-15-11.94-25.15,0-17.27,13.5-31.39,30.52-32.39-6.31-54.3-8.79-113.08-30.77-163.52-24.65-56.58-72.96-98.35-131.18-117.62-.35-123.22-172.98-123.26-172.98,0-41.3,14.84-83.92,42.45-109.92,78.2-84.72,116.44-16.74,293.48-139.94,391.65-10.49,8.36-24.89,10.54-28.39,27.42-2.78,13.4,2.93,33.9,17.64,37.08h180.1c-1.34-3.56-2.08-7.42-2.08-11.45,0-17.92,14.53-32.45,32.45-32.45,11.23,0,21.12,5.7,26.95,14.36,7.34-1.17,36.71-12.87,37.69-14.54ZM320.57,83.73c13.6-66.49,79.83-67.09,93.26.05.41,2.04-1.28,3.85-3.15,3.43l-4.32-.98c-26.4-6.01-53.66-5.89-80.02.33l-2.59.61c-1.89.45-3.59-1.38-3.17-3.43Z"/>
      <path class="cls-8" d="M462.05,653.59h-194.19c23.85,110.26,170.09,109.21,194.19,0Z"/>
      <path class="cls-7" d="M719.39,572.23l-45.61-36.22c-4.22,13.02-16.44,22.44-30.87,22.44-6.8,0-13.11-2.1-18.33-5.67-1.98,1.08-25.4,22.16-26.81,24.29-.04.06-.07.12-.11.18,3.96,5.38,6.31,12.03,6.31,19.22,0,11.92-6.44,22.34-16.02,27.98h122.9c6.71-2.46,8.84-2.46,12.19-7.23,7.93-11.3,8.9-36.88-3.65-45.01Z"/>
      <path class="cls-6" d="M539.06,596.48c0-1.68.13-3.33.37-4.94l-59.19-22.21c-5.54,9.96-16.17,16.7-28.37,16.7-7.29,0-14.02-2.41-19.44-6.47-8.1,7.94-32.06,34.13-34.72,37.6-.4.52-.84.96-1.28,1.36,1.45,1.83,2.71,3.82,3.75,5.94h154.9c-9.58-5.64-16.02-16.06-16.02-27.98Z"/>
      <path class="cls-3" d="M531.79,506.67l-50.57,31.53.04,1.57c1.97,4.19,3.08,8.86,3.08,13.8,0,2.78-.35,5.47-1.01,8.04l59.39,19.92c4.1-7.9,11.35-13.89,20.09-16.32l-8.31-49.12c-8.85-.05-16.87-3.64-22.7-9.43Z"/>
      <path class="cls-4" d="M424.51,534.73l-41.44-43.31c-5.75,5.16-13.34,8.3-21.67,8.3-2.74,0-5.41-.34-7.95-.98l-14.03,41.57c7.44,4.26,13.03,11.37,15.28,19.85,11.94-.41,56.94-3.86,64.74-5.98,0-.21-.02-.41-.02-.61,0-6.65,2-12.83,5.44-17.98-.07-.37-.18-.67-.34-.86Z"/>
      <path class="cls-2" d="M486.33,448.47c-5.35,6.04-12.92,10.06-21.43,10.8-2.82,27.04-2.92,28.51-6.48,62.51,6.72,1.38,12.67,4.83,17.18,9.66l50.49-32.39c-2.47-4.58-3.88-9.82-3.88-15.39,0-5.06,1.16-9.85,3.22-14.11l-39.1-21.07Z"/>
      <path class="cls-1" d="M578.21,461.34c5.51,5.82,8.9,13.67,8.9,22.31,0,3.55-.58,6.97-1.63,10.17l30.95,13.44c5.82-8.21,15.35-13.59,26.14-13.7l-18.27-56.28c-2.71.73-5.56,1.13-8.5,1.13-5.74,0-11.13-1.5-15.81-4.11l-21.78,27.04Z"/>
      <path class="cls-5" d="M371,606.21c7.87,0,15.08,2.8,20.7,7.46,19.77-23.19,21.34-24.71,33.94-41-2.23-3.06-3.93-6.52-4.99-10.26l-64.99,8.84c-.68,8.12-4.35,15.38-9.9,20.69l9.89,18.13c4.57-2.46,9.8-3.86,15.35-3.86Z"/>
      <path class="cls-10" d="M617.94,546.73c-4.67-5.62-7.48-12.85-7.48-20.73,0-3.26.49-6.4,1.38-9.36l-30.48-14.55c-4.21,6.08-10.44,10.66-17.73,12.75l7.32,49.2c.19,0,.37-.01.56-.01,7.72,0,14.8,2.7,20.37,7.2l26.05-24.5Z"/>
      <path class="cls-11" d="M342.25,623.62c1.25-2.38,2.78-4.59,4.56-6.58-4.5-9.86-5.66-12.02-9.8-19.12-4.16,1.94-8.79,3.03-13.68,3.03-10.3,0-19.48-4.81-25.42-12.29-.72-.36-1.46-.61-2.22-.69l-36.52,15.93c1.34,3.55,2.07,7.4,2.07,11.42,0,3.16-.46,6.21-1.3,9.1l82.31-.8Z"/>
    </g>
  </g>
</svg>